<svg xmlns="http://www.w3.org/2000/svg" viewBox="0 0 32 32">
    <circle cx="16" cy="16" r="14" fill="#2E7D32" />
    <path d="M16 2C8.268 2 2 8.268 2 16s6.268 14 14 14 14-6.268 14-14S23.732 2 16 2zm0 2c6.627 0 12 5.373 12 12s-5.373 12-12 12S4 22.627 4 16 9.373 4 16 4z" fill="#ffffff" opacity="0.2"/>
    <path d="M16 4c-3.314 0-6 5.373-6 12s2.686 12 6 12 6-5.373 6-12-2.686-12-6-12zm0 2c2.21 0 4 4.477 4 10s-1.79 10-4 10-4-4.477-4-10 1.79-10 4-10z" fill="#ffffff" opacity="0.3"/>
    <path d="M4 16h24M8 8h16M8 24h16" stroke="#ffffff" stroke-width="1.5" stroke-linecap="round" opacity="0.4"/>
</svg>
